<?xml version="1.0" encoding="utf-8" ?>
<svg xmlns="http://www.w3.org/2000/svg" xmlns:ev="http://www.w3.org/2001/xml-events" xmlns:xlink="http://www.w3.org/1999/xlink" baseProfile="full" height="400" version="1.1" width="800">
  <defs>
    <marker id="arrowBlue" markerHeight="10" markerWidth="10" orient="auto" refX="0" refY="3">
      <path d="M0,0 L0,6 L9,3 z" fill="#0275d8"/>
    </marker>
  </defs>
  <rect fill="#f4f4f4" height="400" width="400" x="0" y="0"/>
  <rect fill="#e8f4fc" height="400" width="400" x="400" y="0"/>
  <line stroke="#333" stroke-dasharray="5,5" stroke-width="2" x1="400" x2="400" y1="0" y2="400"/>
  <text fill="#333" font-family="Arial" font-size="20" font-weight="bold" text-anchor="middle" x="200" y="40">0.01 M (Low Concentration)</text>
  <text fill="#d9534f" font-family="Arial" font-size="14" text-anchor="middle" x="200" y="70">High Resistance (iR Drop)</text>
  <text fill="#333" font-family="Arial" font-size="20" font-weight="bold" text-anchor="middle" x="600" y="40">0.1 M (High Concentration)</text>
  <text fill="#0275d8" font-family="Arial" font-size="14" text-anchor="middle" x="600" y="70">Low Resistance (Fast Balance)</text>
  <rect fill="#ffd700" height="20" stroke="#d4af37" stroke-width="2" width="300" x="50" y="350"/>
  <text font-family="Arial" font-size="14" text-anchor="middle" x="200.0" y="385">Working Electrode (Au)</text>
  <rect fill="#ffd700" height="20" stroke="#d4af37" stroke-width="2" width="300" x="450" y="350"/>
  <text font-family="Arial" font-size="14" text-anchor="middle" x="600.0" y="385">Working Electrode (Au)</text>
  <circle cx="100" cy="150" fill="#9b59b6" opacity="0.6" r="8"/>
  <text fill="white" font-family="Arial" font-size="10" text-anchor="middle" x="100" y="154">K+</text>
  <circle cx="300" cy="200" fill="#9b59b6" opacity="0.6" r="8"/>
  <text fill="white" font-family="Arial" font-size="10" text-anchor="middle" x="300" y="204">K+</text>
  <circle cx="200" cy="120" fill="#2ecc71" opacity="0.6" r="10"/>
  <text fill="white" font-family="Arial" font-size="8" text-anchor="middle" x="200" y="124">PO4</text>
  <circle cx="200" cy="320" fill="#333" opacity="1.0" r="15"/>
  <text fill="white" font-family="Arial" font-size="10" text-anchor="middle" x="200" y="324">DA</text>
  <path d="M 200 305 L 200 250" stroke="#d9534f" stroke-dasharray="4,4" stroke-width="2"/>
  <text fill="#d9534f" font-family="Arial" font-size="12" x="210" y="280">Slow Charge Balance</text>
  <circle cx="480" cy="320" fill="#9b59b6" opacity="1.0" r="8"/>
  <text fill="white" font-family="Arial" font-size="10" text-anchor="middle" x="480" y="324">K+</text>
  <circle cx="520" cy="310" fill="#9b59b6" opacity="1.0" r="8"/>
  <circle cx="700" cy="320" fill="#9b59b6" opacity="1.0" r="8"/>
  <circle cx="650" cy="300" fill="#9b59b6" opacity="1.0" r="8"/>
  <circle cx="550" cy="150" fill="#9b59b6" opacity="1.0" r="8"/>
  <circle cx="680" cy="100" fill="#9b59b6" opacity="1.0" r="8"/>
  <circle cx="620" cy="180" fill="#9b59b6" opacity="1.0" r="8"/>
  <circle cx="600" cy="250" fill="#2ecc71" opacity="1.0" r="10"/>
  <circle cx="500" cy="200" fill="#2ecc71" opacity="1.0" r="10"/>
  <circle cx="720" cy="220" fill="#2ecc71" opacity="1.0" r="10"/>
  <circle cx="600" cy="320" fill="#333" opacity="1.0" r="15"/>
  <text fill="white" font-family="Arial" font-size="10" text-anchor="middle" x="600" y="324">DA</text>
  <line marker-end="url(#arrowBlue)" stroke="#0275d8" stroke-width="2" x1="530" x2="580" y1="315" y2="320"/>
  <line marker-end="url(#arrowBlue)" stroke="#0275d8" stroke-width="2" x1="690" x2="620" y1="315" y2="320"/>
  <text fill="#0275d8" font-family="Arial" font-size="12" font-weight="bold" text-anchor="middle" x="600" y="290">Instant Shielding</text>
</svg>
