<?xml version="1.0" encoding="utf-8" ?>
<svg xmlns="http://www.w3.org/2000/svg" xmlns:ev="http://www.w3.org/2001/xml-events" xmlns:xlink="http://www.w3.org/1999/xlink" baseProfile="full" height="500" version="1.1" width="800">
  <defs>
    <marker id="arrowRed" markerHeight="10" markerWidth="10" orient="auto" refX="0" refY="3">
      <path d="M0,0 L0,6 L9,3 z" fill="#c0392b"/>
    </marker>
    <marker id="arrowBlue" markerHeight="10" markerWidth="10" orient="auto" refX="0" refY="3">
      <path d="M0,0 L0,6 L9,3 z" fill="#2980b9"/>
    </marker>
  </defs>
  <rect fill="#fff0f0" height="500" width="400" x="0" y="0"/>
  <rect fill="#f0f8ff" height="500" width="400" x="400" y="0"/>
  <line stroke="#333" stroke-width="2" x1="400" x2="400" y1="0" y2="500"/>
  <text fill="#c0392b" font-family="Arial" font-size="22" font-weight="bold" text-anchor="middle" x="200" y="40">Low pH (6.4)</text>
  <text fill="#555" font-family="Arial" font-size="16" text-anchor="middle" x="200" y="70">Protonated (Stable)</text>
  <text fill="#2980b9" font-family="Arial" font-size="22" font-weight="bold" text-anchor="middle" x="600" y="40">High pH (8.4)</text>
  <text fill="#555" font-family="Arial" font-size="16" text-anchor="middle" x="600" y="70">Deprotonated (Reactive)</text>
  <rect fill="#ffd700" height="30" stroke="#d4af37" stroke-width="3" width="700" x="50" y="450"/>
  <text font-family="Arial" font-weight="bold" text-anchor="middle" x="400" y="475">GOLD ELECTRODE SURFACE</text>
  <circle cx="50" cy="150" fill="#e74c3c" r="5"/>
  <text fill="#e74c3c" font-family="Arial" font-size="12" x="65" y="155">H+</text>
  <circle cx="150" cy="100" fill="#e74c3c" r="5"/>
  <circle cx="300" cy="180" fill="#e74c3c" r="5"/>
  <circle cx="350" cy="300" fill="#e74c3c" r="5"/>
  <g transform="translate(150, 250)">
    <polygon fill="none" points="30,0 60,17 60,52 30,70 0,52 0,17" stroke="#333" stroke-width="3"/>
    <text font-family="Arial" font-size="10" text-anchor="middle" x="30" y="45">DA</text>
    <line stroke="#333" stroke-width="3" x1="30" x2="30" y1="0" y2="-30"/>
    <text fill="#c0392b" font-family="Arial" font-size="18" font-weight="bold" text-anchor="middle" x="30" y="-35">NH3+</text>
  </g>
  <line marker-end="url(#arrowRed)" stroke="#c0392b" stroke-dasharray="5,5" stroke-width="2" x1="180" x2="180" y1="330" y2="430"/>
  <text fill="#c0392b" font-family="Arial" font-size="14" x="200" y="380">Hard to Oxidize</text>
  <g transform="translate(550, 150)">
    <circle cx="0" cy="0" fill="#2ecc71" opacity="0.3" r="30"/>
    <text fill="#27ae60" font-family="Arial" font-weight="bold" text-anchor="middle" x="0" y="5">HPO4--</text>
    <text fill="#27ae60" font-family="Arial" font-size="12" text-anchor="middle" x="0" y="20">(Base)</text>
  </g>
  <g transform="translate(550, 250)">
    <polygon fill="none" points="30,0 60,17 60,52 30,70 0,52 0,17" stroke="#333" stroke-width="3"/>
    <text font-family="Arial" font-size="10" text-anchor="middle" x="30" y="45">DA</text>
    <line stroke="#333" stroke-width="3" x1="30" x2="30" y1="0" y2="-30"/>
    <text fill="#2980b9" font-family="Arial" font-size="18" font-weight="bold" text-anchor="middle" x="30" y="-35">NH2</text>
  </g>
  <path d="M 580 210 Q 600 190 570 185" fill="none" marker-end="url(#arrowRed)" stroke="#e74c3c" stroke-width="2"/>
  <text fill="#e74c3c" font-family="Arial" font-size="12" x="650" y="200">H+ removed by Buffer</text>
  <line marker-end="url(#arrowBlue)" stroke="#2980b9" stroke-width="6" x1="580" x2="580" y1="330" y2="440"/>
  <text fill="#2980b9" font-family="Arial" font-size="14" font-weight="bold" x="610" y="380">FAST OXIDATION</text>
  <text fill="#333" font-family="Arial" font-size="12" x="610" y="400">Rough Film Growth</text>
</svg>
